Coordinates
version=1
nRows=43
nColumns=12
inDegrees=yes

Units are S.I. units (second, meters, Newtons, ...)
Angles are in degrees

endheader
time	SC_y	SC_z	SC_x	AC_y	AC_z	AC_x	GH_y	GH_z	GH_yy	EL_x	PS_y
       0.0              -29.58          31.12          34.91           47.0          4.314          16.78         -117.0          39.87         -79.31          69.09          142.5
  0.006906              -29.58          31.12          34.91           47.0           4.31          16.78         -117.0          39.87         -79.31          69.09          142.5
   0.01381              -29.59          31.12           34.9           47.0          4.307          16.78         -117.0          39.86         -79.31          69.09          142.5
   0.02072              -29.59          31.12           34.9           47.0          4.303          16.77         -116.9          39.85          -79.3           69.1          142.5
   0.02763               -29.6          31.12          34.89           47.0          4.299          16.77         -116.9          39.84          -79.3           69.1          142.4
   0.03453               -29.6          31.12          34.89          47.01          4.295          16.76         -116.9          39.83          -79.3          69.11          142.4
   0.04144               -29.6          31.12          34.88          47.01          4.291          16.76         -116.9          39.81         -79.29          69.11          142.4
   0.04834              -29.61          31.12          34.88          47.01          4.286          16.75         -116.9           39.8         -79.29          69.12          142.4
   0.05525              -29.61          31.12          34.87          47.01          4.281          16.75         -116.9          39.79         -79.29          69.12          142.4
   0.06216              -29.62          31.12          34.87          47.01          4.276          16.74         -116.8          39.77         -79.28          69.13          142.4
   0.06906              -29.63          31.12          34.86          47.01           4.27          16.74         -116.8          39.76         -79.28          69.14          142.4
   0.07597              -29.63          31.12          34.85          47.02          4.264          16.73         -116.8          39.74         -79.27          69.14          142.4
   0.08288              -29.64          31.12          34.84          47.02          4.257          16.72         -116.8          39.72         -79.27          69.15          142.3
   0.08978              -29.65          31.12          34.84          47.02           4.25          16.71         -116.7           39.7         -79.26          69.16          142.3
   0.09669              -29.65          31.12          34.83          47.02          4.242          16.71         -116.7          39.68         -79.26          69.17          142.3
    0.1036              -29.66          31.12          34.82          47.02          4.233           16.7         -116.7          39.66         -79.25          69.18          142.3
    0.1105              -29.67          31.12          34.81          47.03          4.224          16.69         -116.6          39.63         -79.24          69.19          142.3
    0.1174              -29.68          31.12          34.79          47.03          4.214          16.68         -116.6          39.61         -79.24           69.2          142.2
    0.1243               -29.7          31.12          34.78          47.03          4.203          16.66         -116.6          39.58         -79.23          69.21          142.2
    0.1312              -29.71          31.12          34.77          47.04          4.191          16.65         -116.5          39.54         -79.22          69.23          142.2
    0.1381              -29.72          31.12          34.75          47.04          4.177          16.64         -116.5          39.51         -79.21          69.24          142.1
     0.145              -29.74          31.12          34.73          47.05          4.163          16.62         -116.4          39.47          -79.2          69.26          142.1
    0.1519              -29.75          31.12          34.71          47.05          4.146           16.6         -116.4          39.43         -79.19          69.28          142.1
    0.1588              -29.77          31.12          34.69          47.06          4.128          16.59         -116.3          39.38         -79.17           69.3          142.0
    0.1658              -29.79          31.12          34.67          47.06          4.109          16.56         -116.2          39.32         -79.16          69.32          142.0
    0.1727              -29.82          31.12          34.64          47.07          4.086          16.54         -116.1          39.26         -79.14          69.34          141.9
    0.1796              -29.84          31.13          34.62          47.08          4.061          16.51         -116.0           39.2         -79.12          69.37          141.8
    0.1865              -29.87          31.13          34.58          47.09          4.033          16.48         -115.9          39.12          -79.1           69.4          141.8
    0.1934               -29.9          31.13          34.55           47.1          4.002          16.45         -115.8          39.04         -79.08          69.44          141.7
    0.2003              -29.94          31.13           34.5          47.11          3.966          16.41         -115.7          38.94         -79.05          69.48          141.6
    0.2072              -29.98          31.13          34.46          47.12          3.925          16.37         -115.5          38.83         -79.02          69.53          141.5
    0.2141              -30.03          31.13           34.4          47.14          3.878          16.32         -115.4          38.71         -78.99          69.58          141.4
     0.221              -30.09          31.13          34.34          47.15          3.823          16.26         -115.2          38.56         -78.95          69.64          141.2
    0.2279              -30.15          31.14          34.26          47.17           3.76          16.19         -114.9          38.39          -78.9          69.71          141.1
    0.2348              -30.23          31.14          34.18           47.2          3.686          16.11         -114.7          38.19         -78.85          69.79          140.9
    0.2417              -30.32          31.14          34.07          47.22          3.599          16.02         -114.3          37.96         -78.78          69.89          140.7
    0.2486              -30.42          31.15          33.95          47.26          3.496          15.91         -114.0          37.68         -78.71          70.01          140.4
    0.2555              -30.55          31.15          33.81          47.29          3.371          15.78         -113.5          37.35         -78.62          70.15          140.1
    0.2624              -30.71          31.16          33.63          47.34          3.221          15.62         -113.0          36.95         -78.51          70.32          139.7
    0.2693               -30.9          31.16          33.42           47.4          3.038          15.42         -112.3          36.45         -78.37          70.53          139.3
    0.2763              -31.13          31.17          33.15          47.47          2.811          15.18         -111.5          35.85         -78.21          70.78          138.7
    0.2832              -31.42          31.18          32.82          47.56          2.529          14.88         -110.4          35.09          -78.0           71.1          138.0
    0.2901              -31.79          31.19           32.4          47.67          2.174           14.5         -109.1          34.14         -77.74           71.5          137.1
